REM DIRINDEX 1\3,1\2\4,1\2\5,1\2\6
REM DIRNAME folder01,folder02,folder03,folder04,folder05,folder06
TITLE ""
FILE "057.mp3" MP3
  TRACK 01 AUDIO
    TITLE "4:cjc137_2318"
    INDEX 01 00:00:00
  TRACK 02 AUDIO
    TITLE "0:"
    INDEX 01 00:01:19
  TRACK 03 AUDIO
    TITLE "6:cjc137_2319"
    INDEX 01 00:01:26
  TRACK 04 AUDIO
    TITLE "0:"
    INDEX 01 00:02:10
  TRACK 05 AUDIO
    TITLE "5:cjc137_2320"
    INDEX 01 00:02:18
  TRACK 06 AUDIO
    TITLE "0:"
    INDEX 01 00:03:33
  TRACK 07 AUDIO
    TITLE "4:cjc137_2321"
    INDEX 01 00:04:42
  TRACK 08 AUDIO
    TITLE "0:"
    INDEX 01 00:05:61
  TRACK 09 AUDIO
    TITLE "6:cjc137_2322"
    INDEX 01 00:05:69
  TRACK 10 AUDIO
    TITLE "0:"
    INDEX 01 00:07:05
  TRACK 11 AUDIO
    TITLE "5:cjc137_2323"
    INDEX 01 00:07:11
  TRACK 12 AUDIO
    TITLE "0:"
    INDEX 01 00:08:30
  TRACK 13 AUDIO
    TITLE "4:cjc137_2324"
    INDEX 01 00:09:38
  TRACK 14 AUDIO
    TITLE "0:"
    INDEX 01 00:10:61
  TRACK 15 AUDIO
    TITLE "6:cjc137_2325"
    INDEX 01 00:10:70
  TRACK 16 AUDIO
    TITLE "0:"
    INDEX 01 00:12:03
  TRACK 17 AUDIO
    TITLE "5:cjc137_2326"
    INDEX 01 00:12:11
  TRACK 18 AUDIO
    TITLE "0:"
    INDEX 01 00:13:35
  TRACK 19 AUDIO
    TITLE "4:cjc137_2327"
    INDEX 01 00:14:45
  TRACK 20 AUDIO
    TITLE "0:"
    INDEX 01 00:15:38
  TRACK 21 AUDIO
    TITLE "6:cjc137_2328"
    INDEX 01 00:15:48
  TRACK 22 AUDIO
    TITLE "0:"
    INDEX 01 00:16:40
  TRACK 23 AUDIO
    TITLE "5:cjc137_2329"
    INDEX 01 00:16:49
  TRACK 24 AUDIO
    TITLE "0:"
    INDEX 01 00:17:43
  TRACK 25 AUDIO
    TITLE "4:cjc137_2330"
    INDEX 01 00:18:54
  TRACK 26 AUDIO
    TITLE "0:"
    INDEX 01 00:19:52
  TRACK 27 AUDIO
    TITLE "6:cjc137_2331"
    INDEX 01 00:19:62
  TRACK 28 AUDIO
    TITLE "0:"
    INDEX 01 00:20:57
  TRACK 29 AUDIO
    TITLE "5:cjc137_2332"
    INDEX 01 00:20:69
  TRACK 30 AUDIO
    TITLE "0:"
    INDEX 01 00:21:64
  TRACK 31 AUDIO
    TITLE "4:cjc137_2333"
    INDEX 01 00:23:01
  TRACK 32 AUDIO
    TITLE "0:"
    INDEX 01 00:24:04
  TRACK 33 AUDIO
    TITLE "6:cjc137_2334"
    INDEX 01 00:24:14
  TRACK 34 AUDIO
    TITLE "0:"
    INDEX 01 00:25:19
  TRACK 35 AUDIO
    TITLE "5:cjc137_2335"
    INDEX 01 00:25:29
  TRACK 36 AUDIO
    TITLE "0:"
    INDEX 01 00:26:34
  TRACK 37 AUDIO
    TITLE "4:cjc137_2336"
    INDEX 01 00:27:41
  TRACK 38 AUDIO
    TITLE "0:"
    INDEX 01 00:28:43
  TRACK 39 AUDIO
    TITLE "6:cjc137_2337"
    INDEX 01 00:28:53
  TRACK 40 AUDIO
    TITLE "0:"
    INDEX 01 00:29:52
  TRACK 41 AUDIO
    TITLE "5:cjc137_2338"
    INDEX 01 00:29:58
  TRACK 42 AUDIO
    TITLE "0:"
    INDEX 01 00:30:63
  TRACK 43 AUDIO
    TITLE "4:cjc137_2339"
    INDEX 01 00:31:71
  TRACK 44 AUDIO
    TITLE "0:"
    INDEX 01 00:33:03
  TRACK 45 AUDIO
    TITLE "6:cjc137_2340"
    INDEX 01 00:33:11
  TRACK 46 AUDIO
    TITLE "0:"
    INDEX 01 00:34:08
  TRACK 47 AUDIO
    TITLE "5:cjc137_2341"
    INDEX 01 00:34:12
  TRACK 48 AUDIO
    TITLE "0:"
    INDEX 01 00:35:19
  TRACK 49 AUDIO
    TITLE "4:cjc137_2342"
    INDEX 01 00:36:27
  TRACK 50 AUDIO
    TITLE "0:"
    INDEX 01 00:37:34
  TRACK 51 AUDIO
    TITLE "6:cjc137_2343"
    INDEX 01 00:37:42
  TRACK 52 AUDIO
    TITLE "0:"
    INDEX 01 00:38:57
  TRACK 53 AUDIO
    TITLE "5:cjc137_2344"
    INDEX 01 00:38:63
  TRACK 54 AUDIO
    TITLE "0:"
    INDEX 01 00:39:72
  TRACK 55 AUDIO
    TITLE "4:cjc137_2345"
    INDEX 01 00:41:06
  TRACK 56 AUDIO
    TITLE "0:"
    INDEX 01 00:42:27
  TRACK 57 AUDIO
    TITLE "6:cjc137_2346"
    INDEX 01 00:42:35
  TRACK 58 AUDIO
    TITLE "0:"
    INDEX 01 00:43:64
  TRACK 59 AUDIO
    TITLE "5:cjc137_2347"
    INDEX 01 00:43:68
  TRACK 60 AUDIO
    TITLE "0:"
    INDEX 01 00:45:16
  TRACK 61 AUDIO
    TITLE "4:cjc137_2348"
    INDEX 01 00:46:23
  TRACK 62 AUDIO
    TITLE "0:"
    INDEX 01 00:47:27
  TRACK 63 AUDIO
    TITLE "6:cjc137_2349"
    INDEX 01 00:47:34
  TRACK 64 AUDIO
    TITLE "0:"
    INDEX 01 00:48:22
  TRACK 65 AUDIO
    TITLE "5:cjc137_2350"
    INDEX 01 00:48:30
  TRACK 66 AUDIO
    TITLE "0:"
    INDEX 01 00:49:33
  TRACK 67 AUDIO
    TITLE "4:cjc137_2351"
    INDEX 01 00:50:41
  TRACK 68 AUDIO
    TITLE "0:"
    INDEX 01 00:51:48
  TRACK 69 AUDIO
    TITLE "6:cjc137_2352"
    INDEX 01 00:51:58
  TRACK 70 AUDIO
    TITLE "0:"
    INDEX 01 00:53:13
  TRACK 71 AUDIO
    TITLE "5:cjc137_2353"
    INDEX 01 00:53:19
  TRACK 72 AUDIO
    TITLE "0:"
    INDEX 01 00:54:27
  TRACK 73 AUDIO
    TITLE "4:cjc137_2354"
    INDEX 01 00:55:40
  TRACK 74 AUDIO
    TITLE "0:"
    INDEX 01 00:56:45
  TRACK 75 AUDIO
    TITLE "6:cjc137_2355"
    INDEX 01 00:56:51
  TRACK 76 AUDIO
    TITLE "0:"
    INDEX 01 00:57:45
  TRACK 77 AUDIO
    TITLE "5:cjc137_2356"
    INDEX 01 00:57:52
  TRACK 78 AUDIO
    TITLE "0:"
    INDEX 01 00:58:58
  TRACK 79 AUDIO
    TITLE "4:cjc137_2357"
    INDEX 01 00:59:65
  TRACK 80 AUDIO
    TITLE "0:"
    INDEX 01 01:01:03
  TRACK 81 AUDIO
    TITLE "6:cjc137_2358"
    INDEX 01 01:01:11
  TRACK 82 AUDIO
    TITLE "0:"
    INDEX 01 01:02:57
  TRACK 83 AUDIO
    TITLE "5:cjc137_2359"
    INDEX 01 01:02:65
  TRACK 84 AUDIO
    TITLE "0:"
    INDEX 01 01:04:05
